# xmcd CD database file
# 
# Track frame offsets:
# 	150
# 	13297
# 	27872
# 	42412
# 	57127
# 	70362
# 	84287
# 	98137
# 	116600
# 	121000
# 	136135
# 	147552
# 	161805
# 	177025
# 	189740
# 	204535
# 	217485
# 	230700
# 	244337
# 	256785
# 	269652
# 
# Disc length: 3761 seconds
# 
# Submitted via: Nero 5.5.9.9
# 
# Revision: 0
# Processed by: cddbd v1.4PL0 Copyright (c) Steve Scherf et al.
#
DISCID=3f0eaf15
DTITLE=Charles Brown - Drifting and Dreaming
DYEAR=1900
DGENRE=
TTITLE0=Travelin' Blues
TTITLE1=I'll Get Along Somehow
TTITLE2=What Do You Know About Love?
TTITLE3=It's the Talk of the Town
TTITLE4=Nutmeg
TTITLE5=How Deep Is the Ocean?
TTITLE6=You Left Me Foresaken
TTITLE7=Warsaw Concerto, part 1
TTITLE8=Warsaw Concerto, part 2
TTITLE9=So Long
TTITLE10=Take Me Lamb
TTITLE11=You Won't Let Me Go
TTITLE12=You Are My First Love
TTITLE13=It Had To Be You
TTITLE14=You Showed Me the Way
TTITLE15=More Than You Know
TTITLE16=Sail On Blues
TTITLE17=Blue Because of You
TTITLE18=When Your Lover Has Gone
TTITLE19=If You Should Ever Leave Me
TTITLE20=Copyright On Your Love
EXTD=
EXTT0=
EXTT1=
EXTT2=
EXTT3=
EXTT4=
EXTT5=
EXTT6=
EXTT7=
EXTT8=
EXTT9=
EXTT10=
EXTT11=
EXTT12=
EXTT13=
EXTT14=
EXTT15=
EXTT16=
EXTT17=
EXTT18=
EXTT19=
EXTT20=
PLAYORDER=
